<?xml version="1.0" encoding="utf-8"?>
<!-- Generator: Adobe Illustrator 16.0.0, SVG Export Plug-In . SVG Version: 6.00 Build 0)  -->
<!DOCTYPE svg PUBLIC "-//W3C//DTD SVG 1.1//EN" "http://www.w3.org/Graphics/SVG/1.1/DTD/svg11.dtd">
<svg version="1.1" id="Layer_1" xmlns="http://www.w3.org/2000/svg" xmlns:xlink="http://www.w3.org/1999/xlink" x="0px" y="0px"
	 width="103.866px" height="83px" viewBox="0 0 103.866 83" enable-background="new 0 0 103.866 83" xml:space="preserve">
<path fill-rule="evenodd" clip-rule="evenodd" d="M38.195,63.413c-0.069-2.008,1.977-4.175,4.023-4.188
	c4.576-0.031,9.153-0.023,13.73-0.004c1.633,0.006,3.152,1.225,3.782,2.949c0.114,0.312,0.193,0.636,0.281,0.956
	c0.021,0.077,0.015,0.161,0.025,0.287C52.738,63.413,45.467,63.413,38.195,63.413z"/>
<path fill-rule="evenodd" clip-rule="evenodd" d="M43.969,58.758c0.313-0.701,0.888-0.931,1.514-0.938
	c2.407-0.028,4.815-0.027,7.223,0c0.624,0.007,1.19,0.242,1.515,0.938C50.782,58.758,47.407,58.758,43.969,58.758z"/>
<path fill-rule="evenodd" clip-rule="evenodd" fill="#B7B7B8" d="M36.901,33.187c0.058,1.159,0.07,2.27,0.178,3.372
	c0.106,1.087,0.308,2.166,0.464,3.235c-0.99,0.387-2.001,0.783-3.063,1.198c-1.191-2.571-1.732-5.187-1.687-8.019
	C34.187,33.045,35.55,33.116,36.901,33.187z"/>
<path fill-rule="evenodd" clip-rule="evenodd" fill="#FACD57" d="M64.483,34.664c1.263,0.069,2.603,0.141,4.005,0.218
	c-0.228,2.788-1.065,5.335-2.49,7.74c-1.004-0.471-1.988-0.932-2.891-1.355C63.564,39.071,64.016,36.904,64.483,34.664z"/>
<path fill-rule="evenodd" clip-rule="evenodd" fill="#B7B7B8" d="M32.849,31.932c0.255-2.787,1.062-5.333,2.488-7.716
	c1.017,0.476,2.004,0.938,2.894,1.354c-0.458,2.201-0.905,4.355-1.366,6.575C35.612,32.078,34.259,32.006,32.849,31.932z"/>
<path fill-rule="evenodd" clip-rule="evenodd" fill="#FACD57" d="M63.894,27.009c0.93-0.364,1.93-0.755,2.969-1.162
	c1.205,2.566,1.734,5.182,1.688,7.992c-1.393-0.073-2.744-0.144-4.015-0.21C64.319,31.396,64.106,29.208,63.894,27.009z"/>
<path fill-rule="evenodd" clip-rule="evenodd" fill="#6F7577" d="M39.659,25.095c0.729-1.792,1.618-3.354,2.753-4.762
	c1.124,0.583,2.225,1.154,3.334,1.73c-0.45,1.423-0.91,2.873-1.401,4.423C42.811,26.03,41.262,25.57,39.659,25.095z"/>
<path fill-rule="evenodd" clip-rule="evenodd" fill="#FDBC45" d="M55.589,44.773c0.455-1.429,0.916-2.878,1.407-4.423
	c1.543,0.458,3.092,0.918,4.684,1.391c-0.731,1.783-1.616,3.345-2.758,4.754C57.79,45.909,56.69,45.342,55.589,44.773z"/>
<path fill-rule="evenodd" clip-rule="evenodd" fill="#6F7577" d="M43.646,39.633c0.262,1.284,0.487,2.454,0.741,3.619
	c0.212,0.968,0.219,0.943-0.715,1.27c-0.858,0.3-1.697,0.657-2.602,1.01c-0.957-1.51-1.729-3.142-2.212-5.016
	C40.48,40.216,42.053,39.927,43.646,39.633z"/>
<path fill-rule="evenodd" clip-rule="evenodd" fill="#FDBC45" d="M60.407,21.235c0.737,1.661,1.455,3.276,2.243,5.05
	c-1.767,0.33-3.353,0.625-4.946,0.923c-0.316-1.573-0.614-3.05-0.917-4.557C57.918,22.209,59.083,21.753,60.407,21.235z"/>
<path fill-rule="evenodd" clip-rule="evenodd" fill="#FDBC45" d="M45.326,26.709c0.48-1.516,0.926-2.918,1.363-4.296
	c1.393,0.276,2.688,0.533,4.028,0.799c-0.072,1.333-0.145,2.689-0.225,4.167C48.781,27.158,47.116,26.942,45.326,26.709z"/>
<path fill-rule="evenodd" clip-rule="evenodd" fill="#FDBC45" d="M51.721,23.264c1.378-0.121,2.678-0.234,4.086-0.358
	c0.286,1.406,0.578,2.84,0.887,4.356c-0.703,0.043-1.293,0.098-1.885,0.112c-0.961,0.023-1.925,0.019-2.888,0.027
	c-0.231,0.002-0.431-0.013-0.411-0.339C51.586,25.788,51.651,24.513,51.721,23.264z"/>
<path fill-rule="evenodd" clip-rule="evenodd" fill="#FDBC45" d="M49.625,43.573c-1.373,0.121-2.657,0.233-4.07,0.357
	c-0.288-1.384-0.587-2.817-0.918-4.403c1.79-0.044,3.466-0.085,5.211-0.128C49.77,40.865,49.696,42.23,49.625,43.573z"/>
<path fill-rule="evenodd" clip-rule="evenodd" fill="#FDBC45" d="M50.625,43.625c0.074-1.343,0.148-2.696,0.229-4.167
	c1.707,0.222,3.371,0.438,5.16,0.67c-0.484,1.519-0.93,2.917-1.369,4.292C53.268,44.148,51.987,43.895,50.625,43.625z"/>
<path fill-rule="evenodd" clip-rule="evenodd" fill="#B7B7B8" d="M38.601,24.63c-0.832-0.387-1.743-0.811-2.739-1.273
	c0.436-0.559,0.771-1.098,1.213-1.533c0.99-0.978,1.784-1.96,3.052-2.851c0.268-0.188,0.437-0.215,0.671,0.027
	c0.238,0.248,0.691,0.492,0.884,0.655C40.706,21.336,39.588,22.929,38.601,24.63z"/>
<path fill-rule="evenodd" clip-rule="evenodd" fill="#FACD57" d="M65.449,43.467c-1.237,1.793-2.661,3.244-4.342,4.439
	c-0.104,0.074-0.35,0.068-0.457-0.006c-0.314-0.212-0.592-0.479-0.836-0.684c0.97-1.663,1.926-3.305,2.923-5.014
	C63.563,42.587,64.475,43.013,65.449,43.467z"/>
<path fill-rule="evenodd" clip-rule="evenodd" fill="#FACD57" d="M66.396,24.903c-0.966,0.377-1.901,0.744-2.771,1.083
	c-0.802-1.798-1.569-3.519-2.369-5.312c0.257-0.172,0.602-0.419,0.967-0.636c0.082-0.048,0.27-0.033,0.34,0.03
	C64.134,21.455,65.41,23.073,66.396,24.903z"/>
<path fill-rule="evenodd" clip-rule="evenodd" fill="#B7B7B8" d="M40.102,46.155c0.007-0.007-0.011,0.024-0.037,0.042
	c-1.134,0.762-1.136,0.764-2.104-0.219c-1.09-1.105-2.022-2.332-2.8-3.676c-0.071-0.125-0.121-0.263-0.177-0.385
	c0.952-0.373,1.874-0.733,2.744-1.074C38.533,42.644,39.307,44.375,40.102,46.155z"/>
<path fill-rule="evenodd" clip-rule="evenodd" fill="#FDBC45" d="M59.677,20.414c-1.047,0.41-1.987,0.776-2.927,1.146
	c-0.324,0.127-0.4-0.09-0.483-0.324c-0.511-1.447-1.148-2.833-2.029-4.095c-0.273-0.391-0.571-0.765-0.941-1.257
	C56.048,16.618,58.018,18.209,59.677,20.414z"/>
<path fill-rule="evenodd" clip-rule="evenodd" fill="#6F7577" d="M41.688,46.431c1.039-0.406,2.008-0.787,2.978-1.164
	c0.322-0.125,0.34,0.146,0.426,0.333c0.521,1.128,1.006,2.275,1.584,3.373c0.35,0.663,0.847,1.248,1.328,1.938
	C45.312,50.201,43.348,48.609,41.688,46.431z"/>
<path fill-rule="evenodd" clip-rule="evenodd" fill="#6F7577" d="M49.803,15.782c-1.545,1.541-2.663,3.352-3.609,5.369
	c-1.046-0.533-2.046-1.042-3.118-1.589C44.97,17.527,47.1,16.162,49.803,15.782z"/>
<path fill-rule="evenodd" clip-rule="evenodd" fill="#FDBC45" d="M51.53,51.031c1.549-1.515,2.647-3.323,3.614-5.347
	c1.035,0.526,2.03,1.032,3.114,1.583C56.349,49.29,54.232,50.666,51.53,51.031z"/>
<path fill-rule="evenodd" clip-rule="evenodd" fill="#FDBC45" d="M51.1,16.095c-0.112,2.084-0.217,4.023-0.328,6.097
	c-1.207-0.231-2.367-0.453-3.618-0.692C48.133,19.404,49.271,17.59,51.1,16.095z"/>
<path fill-rule="evenodd" clip-rule="evenodd" fill="#FDBC45" d="M52.1,16.139c1.651,1.687,2.585,3.607,3.358,5.794
	c-1.263,0.11-2.438,0.212-3.684,0.32C51.885,20.187,51.988,18.236,52.1,16.139z"/>
<path fill-rule="evenodd" clip-rule="evenodd" fill="#FDBC45" d="M54.184,45.338c-0.981,2.092-2.114,3.877-3.932,5.375
	c0.109-2.079,0.211-4.014,0.319-6.069C51.787,44.878,52.934,45.098,54.184,45.338z"/>
<path fill-rule="evenodd" clip-rule="evenodd" fill="#FDBC45" d="M45.912,44.898c1.267-0.108,2.429-0.207,3.659-0.312
	c-0.11,2.057-0.216,3.996-0.327,6.07C47.588,48.992,46.669,47.074,45.912,44.898z"/>
<path fill-rule="evenodd" clip-rule="evenodd" fill="#B7B7B8" d="M44.884,16.559c-0.867,0.759-1.733,1.518-2.654,2.324
	c-0.257-0.21-0.543-0.443-0.947-0.773c1.253-0.594,2.402-1.138,3.552-1.682C44.851,16.471,44.867,16.515,44.884,16.559z"/>
<path fill-rule="evenodd" clip-rule="evenodd" fill="#FACD57" d="M61.663,19.194c-0.469,0.302-0.77,0.496-1.039,0.669
	c-0.854-0.918-1.664-1.791-2.476-2.664c0.015-0.03,0.029-0.061,0.044-0.091C59.31,17.78,60.427,18.451,61.663,19.194z"/>
<path fill-rule="evenodd" clip-rule="evenodd" fill="#FACD57" d="M56.403,50.322c0.816-0.74,1.628-1.485,2.456-2.21
	c0.085-0.074,0.311-0.087,0.408-0.027c0.232,0.144,0.428,0.349,0.769,0.641c-1.269,0.59-2.438,1.135-3.609,1.679
	C56.419,50.377,56.411,50.35,56.403,50.322z"/>
<path fill-rule="evenodd" clip-rule="evenodd" fill="#B7B7B8" d="M43.107,49.688c-1.093-0.663-2.186-1.326-3.38-2.05
	c0.373-0.253,0.603-0.437,0.86-0.567c0.091-0.045,0.297-0.002,0.367,0.075c0.743,0.811,1.469,1.638,2.199,2.46
	C43.139,49.633,43.123,49.661,43.107,49.688z"/>
<rect id="_x3C_Slice_x3E_" x="46.858" y="13.901" fill-rule="evenodd" clip-rule="evenodd" fill="none" width="1.045" height="0.055"/>
<path fill="#AB0901" d="M50.309,52.187v0.097c0.002,0,0.004,0,0.007,0c11.747,0.255,21.226-10.349,18.888-22.597
	c-1.508-7.9-8.262-14.132-16.299-15.037c-0.388-0.044-0.566-0.031-0.645-0.1h-1.007v-0.025c-2.453-0.053-4.796,0.303-7.062,1.13
	c-2.294,0.836-4.344,2.081-6.156,3.711c-1.827,1.642-3.286,3.567-4.36,5.779c-1.066,2.197-1.685,4.518-1.841,6.953
	c-0.283,4.403,0.773,8.464,3.322,12.073c3.348,4.739,7.953,7.384,13.723,8.052v-0.037H50.309z M49.244,50.656
	c-1.656-1.664-2.575-3.582-3.332-5.758c1.267-0.108,2.429-0.207,3.659-0.312C49.461,46.643,49.355,48.583,49.244,50.656z
	 M49.625,43.573c-1.373,0.121-2.657,0.233-4.07,0.357c-0.288-1.384-0.587-2.817-0.918-4.403c1.79-0.044,3.466-0.085,5.211-0.128
	C49.77,40.865,49.696,42.23,49.625,43.573z M49.904,38.396c-1.775,0.042-3.512,0.083-5.359,0.126
	c-0.043-1.613-0.087-3.243-0.133-4.929c1.967,0.104,3.816,0.203,5.73,0.305C50.062,35.425,49.983,36.91,49.904,38.396z
	 M57.941,33.274c-0.046-1.693-0.092-3.359-0.138-5.067c1.603-0.296,3.243-0.599,4.953-0.915c0.521,2.029,0.683,4.108,0.626,6.274
	C61.52,33.466,59.747,33.371,57.941,33.274z M63.308,34.601c-0.118,2.163-0.579,4.212-1.263,6.203
	c-1.65-0.49-3.252-0.965-4.841-1.437c0.225-1.668,0.449-3.339,0.68-5.052C59.659,34.408,61.445,34.502,63.308,34.601z
	 M57.704,27.208c-0.316-1.573-0.614-3.05-0.917-4.557c1.131-0.442,2.296-0.898,3.62-1.416c0.737,1.661,1.455,3.276,2.243,5.05
	C60.884,26.615,59.298,26.911,57.704,27.208z M61.68,41.74c-0.731,1.783-1.616,3.345-2.758,4.754
	c-1.132-0.585-2.231-1.152-3.333-1.721c0.455-1.429,0.916-2.878,1.407-4.423C58.539,40.808,60.088,41.268,61.68,41.74z
	 M54.645,44.42c-1.377-0.272-2.657-0.525-4.02-0.795c0.074-1.343,0.148-2.696,0.229-4.167c1.707,0.222,3.371,0.438,5.16,0.67
	C55.529,41.647,55.084,43.045,54.645,44.42z M50.493,27.38c-1.712-0.222-3.377-0.438-5.167-0.67c0.48-1.516,0.926-2.918,1.363-4.296
	c1.393,0.276,2.688,0.533,4.028,0.799C50.646,24.546,50.573,25.901,50.493,27.38z M44.345,26.486
	c-1.534-0.456-3.083-0.916-4.686-1.391c0.729-1.792,1.618-3.354,2.753-4.762c1.124,0.583,2.225,1.154,3.334,1.73
	C45.296,23.486,44.836,24.936,44.345,26.486z M44.137,27.471c-0.223,1.664-0.445,3.319-0.675,5.026
	c-1.794-0.096-3.593-0.192-5.438-0.291c0.156-2.153,0.565-4.202,1.274-6.173C40.937,26.52,42.525,26.992,44.137,27.471z
	 M43.446,33.54c-0.003,0.641-0.021,1.235-0.003,1.829c0.029,0.979,0.091,1.958,0.113,2.936c0.004,0.135-0.118,0.376-0.215,0.395
	c-1.564,0.288-3.133,0.548-4.756,0.823c-0.51-2.027-0.687-4.109-0.619-6.275C39.809,33.346,41.609,33.442,43.446,33.54z
	 M43.646,39.633c0.262,1.284,0.487,2.454,0.741,3.619c0.212,0.968,0.219,0.943-0.715,1.27c-0.858,0.3-1.697,0.657-2.602,1.01
	c-0.957-1.51-1.729-3.142-2.212-5.016C40.48,40.216,42.053,39.927,43.646,39.633z M44.466,32.555
	c0.225-1.674,0.438-3.264,0.652-4.863c1.81,0.237,3.53,0.462,5.32,0.696c-0.077,1.45-0.155,2.917-0.237,4.469
	C48.313,32.757,46.451,32.659,44.466,32.555z M50.252,50.714c0.109-2.079,0.211-4.014,0.319-6.069
	c1.216,0.233,2.362,0.454,3.612,0.694C53.202,47.43,52.069,49.216,50.252,50.714z M55.145,45.685
	c1.035,0.526,2.03,1.032,3.114,1.583c-1.91,2.022-4.026,3.398-6.729,3.764C53.079,49.517,54.178,47.708,55.145,45.685z
	 M56.427,50.405c-0.008-0.028-0.016-0.055-0.023-0.083c0.816-0.74,1.628-1.485,2.456-2.21c0.085-0.074,0.311-0.087,0.408-0.027
	c0.232,0.144,0.428,0.349,0.769,0.641C58.768,49.315,57.598,49.86,56.427,50.405z M61.107,47.906
	c-0.104,0.074-0.35,0.068-0.457-0.006c-0.314-0.212-0.592-0.479-0.836-0.684c1.065-1.684,2.125-3.042,2.923-5.014
	c0.826,0.385,1.737,0.811,2.712,1.265C64.212,45.26,62.788,46.711,61.107,47.906z M65.998,42.622
	c-1.004-0.471-1.988-0.932-2.891-1.355c0.719-2.224,1.104-4.285,1.376-6.603c1.263,0.069,2.603,0.141,4.005,0.218
	C68.261,37.669,67.423,40.216,65.998,42.622z M68.551,33.839c-1.393-0.073-2.744-0.144-4.015-0.21
	c0.079-2.282-0.067-4.335-0.643-6.62c0.93-0.364,1.93-0.755,2.969-1.162C68.067,28.414,68.597,31.029,68.551,33.839z M62.563,20.068
	c1.571,1.386,2.848,3.004,3.834,4.834c-0.966,0.377-1.901,0.744-2.771,1.083c-0.518-1.97-1.569-3.519-2.369-5.312
	c0.257-0.172,0.602-0.419,0.967-0.636C62.305,19.99,62.492,20.005,62.563,20.068z M58.192,17.108
	c1.117,0.671,2.234,1.343,3.471,2.086c-0.469,0.302-0.77,0.496-1.039,0.669c-0.854-0.918-1.664-1.791-2.476-2.664
	C58.163,17.169,58.178,17.139,58.192,17.108z M59.677,20.414c-1.047,0.41-1.987,0.776-2.927,1.146
	c-0.324,0.127-0.4-0.09-0.483-0.324c-0.511-1.447-1.148-2.833-2.029-4.095c-0.273-0.391-0.571-0.765-0.941-1.257
	C56.048,16.618,58.018,18.209,59.677,20.414z M52.1,16.139c1.651,1.687,2.585,3.607,3.358,5.794c-1.263,0.11-2.438,0.212-3.684,0.32
	C51.885,20.187,51.988,18.236,52.1,16.139z M51.51,27.062c0.076-1.274,0.142-2.549,0.211-3.797c1.378-0.121,2.678-0.234,4.086-0.358
	c0.286,1.406,0.578,2.84,0.887,4.356c-0.703,0.043-1.293,0.098-1.885,0.112c-0.961,0.023-1.925,0.019-2.888,0.027
	C51.689,27.403,51.49,27.388,51.51,27.062z M51.442,28.438c1.776-0.04,3.497-0.078,5.358-0.119c0.044,1.605,0.088,3.23,0.134,4.902
	c-1.963-0.105-3.815-0.204-5.731-0.307C51.285,31.372,51.364,29.903,51.442,28.438z M56.877,34.258
	c-0.225,1.669-0.442,3.286-0.658,4.888c-1.821-0.238-3.53-0.462-5.313-0.696c0.077-1.472,0.155-2.946,0.236-4.496
	C53.033,34.055,54.897,34.153,56.877,34.258z M51.1,16.095c-0.112,2.084-0.217,4.023-0.328,6.097
	c-1.207-0.231-2.367-0.453-3.618-0.692C48.133,19.404,49.271,17.59,51.1,16.095z M46.193,21.151
	c-1.046-0.533-2.046-1.042-3.118-1.589c1.895-2.035,4.024-3.4,6.728-3.78C48.258,17.323,47.14,19.134,46.193,21.151z M44.834,16.427
	c0.017,0.044,0.033,0.088,0.05,0.132c-0.867,0.759-1.733,1.518-2.654,2.324c-0.257-0.21-0.543-0.443-0.947-0.773
	C42.535,17.515,43.685,16.971,44.834,16.427z M37.074,21.824c0.99-0.978,1.696-1.96,3.052-2.851c0.273-0.18,0.437-0.215,0.671,0.027
	c0.238,0.248,0.521,0.454,0.713,0.617c-0.976,1.681-1.922,3.312-2.909,5.013c-0.832-0.387-1.743-0.811-2.739-1.273
	C36.297,22.798,36.633,22.258,37.074,21.824z M35.337,24.215c1.017,0.476,2.004,0.938,2.894,1.354
	c-0.688,2.259-0.94,4.274-1.366,6.575c-1.252-0.066-2.605-0.138-4.016-0.212C33.104,29.145,33.91,26.598,35.337,24.215z
	 M32.794,32.973c1.393,0.073,2.756,0.144,4.107,0.214c0.058,1.159,0.07,2.27,0.178,3.372c0.106,1.087,0.308,2.166,0.464,3.235
	c-0.99,0.387-2.001,0.783-3.063,1.198C33.289,38.42,32.748,35.805,32.794,32.973z M37.96,45.978c-1.09-1.105-2.022-2.332-2.8-3.676
	c-0.071-0.125-0.121-0.263-0.177-0.385c0.952-0.373,1.874-0.733,2.744-1.074c0.61,1.778,1.579,3.532,2.374,5.312
	c0.007-0.007-0.011,0.024-0.037,0.042C38.931,46.958,38.929,46.96,37.96,45.978z M43.107,49.688c-1.093-0.663-2.186-1.326-3.38-2.05
	c0.373-0.253,0.603-0.437,0.86-0.567c0.091-0.045,0.297-0.002,0.367,0.075c0.743,0.811,1.469,1.638,2.199,2.46
	C43.139,49.633,43.123,49.661,43.107,49.688z M41.688,46.431c1.039-0.406,2.008-0.787,2.978-1.164
	c0.322-0.125,0.34,0.146,0.426,0.333c0.521,1.128,1.006,2.275,1.584,3.373c0.35,0.663,0.847,1.248,1.328,1.938
	C45.312,50.201,43.348,48.609,41.688,46.431z"/>
<path fill-rule="evenodd" clip-rule="evenodd" fill="#FFBD42" d="M39.318,26.034c0,0,6.381,2.173,11.584,2.332
	s8.793-0.505,11.873-1.074c0,0,0.902,2.196,0.539,6.987c-0.366,4.838-1.251,6.525-1.251,6.525s-4.92-1.997-11.632-2.328
	c-6.68-0.33-11.846,1.047-11.846,1.047S36.667,32.265,39.318,26.034z"/>
<polygon fill-rule="evenodd" clip-rule="evenodd" points="52.277,13.203 50.894,13.068 50.776,13.057 "/>
<path fill-rule="evenodd" clip-rule="evenodd" d="M51.332,14.526"/>
<line fill-rule="evenodd" clip-rule="evenodd" x1="51.332" y1="14.526" x2="52.239" y2="14.526"/>
<g>
	<path fill="#006234" d="M40.441,36.953v-6.994h5.186v1.184h-3.773v1.55h3.512v1.178h-3.512v1.904h3.908v1.178H40.441z"/>
	<path fill="#006234" d="M46.963,36.953v-6.994h1.412v2.753h2.768v-2.753h1.412v6.994h-1.412v-3.058h-2.768v3.058H46.963z"/>
	<path fill="#006234" d="M53.729,33.499c0-0.712,0.107-1.31,0.32-1.794c0.158-0.356,0.375-0.676,0.65-0.958
		c0.275-0.283,0.576-0.493,0.904-0.63c0.436-0.185,0.938-0.277,1.508-0.277c1.031,0,1.855,0.32,2.473,0.959
		c0.619,0.639,0.93,1.528,0.93,2.667c0,1.129-0.309,2.012-0.922,2.65s-1.434,0.957-2.461,0.957c-1.041,0-1.867-0.317-2.48-0.952
		C54.035,35.486,53.729,34.612,53.729,33.499z M55.184,33.451c0,0.792,0.184,1.393,0.549,1.801s0.83,0.613,1.393,0.613
		c0.564,0,1.025-0.203,1.387-0.608c0.361-0.406,0.541-1.014,0.541-1.825c0-0.801-0.176-1.399-0.527-1.793
		c-0.352-0.395-0.818-0.592-1.4-0.592s-1.051,0.2-1.406,0.599C55.361,32.044,55.184,32.646,55.184,33.451z"/>
</g>
<polygon fill-rule="evenodd" clip-rule="evenodd" points="50.292,52.064 50.292,57.967 48.519,57.967 48.426,52.839 "/>
<g>
	<path fill="#312D2A" d="M11.85,73v-3.935h2.918v0.666h-2.123v0.873h1.975v0.663h-1.975v1.071h2.197V73H11.85z"/>
	<path fill="#312D2A" d="M15.52,73v-3.935h1.672c0.42,0,0.727,0.035,0.916,0.106c0.191,0.071,0.344,0.196,0.459,0.377
		c0.113,0.181,0.172,0.388,0.172,0.62c0,0.295-0.088,0.539-0.262,0.731c-0.172,0.192-0.432,0.314-0.777,0.364
		c0.172,0.1,0.313,0.21,0.426,0.33c0.111,0.12,0.262,0.333,0.451,0.639L19.057,73h-0.949l-0.574-0.856
		c-0.205-0.306-0.344-0.499-0.42-0.578c-0.074-0.08-0.154-0.134-0.238-0.164c-0.084-0.029-0.217-0.044-0.4-0.044h-0.16V73H15.52z
		 M16.314,70.729h0.588c0.381,0,0.619-0.016,0.713-0.048c0.096-0.032,0.17-0.087,0.223-0.167c0.055-0.079,0.082-0.177,0.082-0.295
		c0-0.132-0.037-0.239-0.107-0.321s-0.17-0.133-0.299-0.154c-0.064-0.009-0.258-0.014-0.58-0.014h-0.619V70.729z"/>
	<path fill="#312D2A" d="M19.463,73v-3.935h0.793V73H19.463z"/>
	<path fill="#312D2A" d="M23.531,71.553l0.771,0.244c-0.119,0.43-0.314,0.749-0.59,0.957s-0.623,0.313-1.045,0.313
		c-0.523,0-0.953-0.178-1.289-0.535s-0.504-0.845-0.504-1.464c0-0.655,0.168-1.164,0.506-1.526c0.338-0.363,0.783-0.544,1.334-0.544
		c0.482,0,0.873,0.143,1.174,0.427c0.18,0.168,0.313,0.41,0.402,0.725l-0.787,0.188c-0.045-0.204-0.143-0.365-0.291-0.483
		c-0.146-0.118-0.326-0.177-0.537-0.177c-0.293,0-0.529,0.105-0.711,0.314c-0.182,0.209-0.271,0.549-0.271,1.018
		c0,0.498,0.09,0.852,0.268,1.063c0.18,0.211,0.412,0.317,0.699,0.317c0.211,0,0.393-0.067,0.543-0.202
		C23.355,72.052,23.465,71.841,23.531,71.553z"/>
	<path fill="#312D2A" d="M26.514,73v-3.935h0.795v1.549h1.557v-1.549h0.795V73h-0.795v-1.721h-1.557V73H26.514z"/>
	<path fill="#312D2A" d="M30.477,69.065h0.795v2.131c0,0.338,0.01,0.557,0.029,0.658c0.033,0.161,0.115,0.29,0.242,0.388
		c0.129,0.098,0.303,0.146,0.525,0.146c0.225,0,0.395-0.046,0.51-0.139c0.115-0.092,0.184-0.205,0.207-0.339
		s0.035-0.357,0.035-0.668v-2.177h0.793v2.067c0,0.472-0.021,0.806-0.064,1.001c-0.043,0.195-0.121,0.36-0.236,0.494
		s-0.27,0.241-0.463,0.321s-0.445,0.119-0.758,0.119c-0.375,0-0.66-0.043-0.855-0.13c-0.193-0.087-0.348-0.2-0.459-0.338
		c-0.113-0.139-0.188-0.284-0.223-0.436c-0.053-0.226-0.078-0.559-0.078-0.999V69.065z"/>
	<path fill="#312D2A" d="M34.441,73v-3.935h1.188l0.715,2.684l0.705-2.684h1.193V73h-0.738v-3.098L36.723,73h-0.766l-0.779-3.098V73
		H34.441z"/>
	<path fill="#312D2A" d="M42.578,73h-0.863l-0.344-0.894h-1.572L39.473,73h-0.842l1.533-3.935h0.84L42.578,73z M41.115,71.443
		l-0.541-1.46l-0.531,1.46H41.115z"/>
	<path fill="#312D2A" d="M43.01,73v-3.935h0.771l1.611,2.628v-2.628h0.738V73h-0.797l-1.586-2.566V73H43.01z"/>
	<path fill="#312D2A" d="M48.338,71.057c0-0.401,0.059-0.737,0.18-1.009c0.088-0.201,0.211-0.38,0.365-0.54s0.324-0.277,0.51-0.354
		c0.244-0.104,0.527-0.156,0.848-0.156c0.58,0,1.043,0.18,1.393,0.54c0.348,0.36,0.521,0.86,0.521,1.5
		c0,0.635-0.174,1.132-0.518,1.491c-0.346,0.359-0.809,0.538-1.387,0.538c-0.584,0-1.049-0.178-1.395-0.535
		S48.338,71.683,48.338,71.057z M49.156,71.03c0,0.445,0.102,0.783,0.309,1.013c0.205,0.23,0.467,0.345,0.783,0.345
		s0.576-0.114,0.779-0.342c0.203-0.229,0.305-0.571,0.305-1.027c0-0.451-0.098-0.788-0.297-1.009
		c-0.197-0.222-0.459-0.333-0.787-0.333s-0.592,0.112-0.791,0.337C49.256,70.238,49.156,70.577,49.156,71.03z"/>
	<path fill="#312D2A" d="M52.777,73v-3.935h1.672c0.42,0,0.727,0.035,0.916,0.106c0.191,0.071,0.344,0.196,0.459,0.377
		c0.113,0.181,0.172,0.388,0.172,0.62c0,0.295-0.088,0.539-0.262,0.731c-0.172,0.192-0.432,0.314-0.777,0.364
		c0.172,0.1,0.313,0.21,0.426,0.33c0.111,0.12,0.262,0.333,0.451,0.639L56.314,73h-0.949l-0.574-0.856
		c-0.205-0.306-0.344-0.499-0.42-0.578c-0.074-0.08-0.154-0.134-0.238-0.164c-0.084-0.029-0.217-0.044-0.4-0.044h-0.16V73H52.777z
		 M53.572,70.729h0.588c0.381,0,0.619-0.016,0.713-0.048c0.096-0.032,0.17-0.087,0.223-0.167c0.055-0.079,0.082-0.177,0.082-0.295
		c0-0.132-0.037-0.239-0.107-0.321s-0.17-0.133-0.299-0.154c-0.064-0.009-0.258-0.014-0.58-0.014h-0.619V70.729z"/>
	<path fill="#312D2A" d="M58.574,71.553V70.89h1.713v1.568c-0.166,0.161-0.408,0.303-0.723,0.425
		c-0.316,0.123-0.637,0.184-0.961,0.184c-0.41,0-0.77-0.086-1.076-0.259c-0.305-0.173-0.535-0.419-0.689-0.741
		s-0.23-0.671-0.23-1.048c0-0.41,0.086-0.774,0.258-1.093c0.172-0.318,0.424-0.563,0.754-0.732c0.252-0.131,0.566-0.196,0.941-0.196
		c0.49,0,0.871,0.103,1.146,0.308c0.273,0.205,0.451,0.488,0.529,0.85l-0.789,0.147c-0.055-0.193-0.16-0.346-0.313-0.458
		s-0.344-0.168-0.574-0.168c-0.346,0-0.623,0.11-0.828,0.33c-0.203,0.22-0.307,0.547-0.307,0.98c0,0.467,0.104,0.817,0.313,1.051
		c0.207,0.233,0.479,0.351,0.814,0.351c0.168,0,0.334-0.033,0.502-0.098c0.166-0.065,0.311-0.145,0.43-0.238v-0.499H58.574z"/>
	<path fill="#312D2A" d="M64.568,73h-0.863l-0.344-0.894h-1.572L61.463,73h-0.842l1.533-3.935h0.84L64.568,73z M63.105,71.443
		l-0.541-1.46l-0.531,1.46H63.105z"/>
	<path fill="#312D2A" d="M64.998,73v-3.935h0.773l1.611,2.628v-2.628h0.738V73h-0.799l-1.586-2.566V73H64.998z"/>
	<path fill="#312D2A" d="M68.936,73v-3.935h0.795V73H68.936z"/>
	<path fill="#312D2A" d="M70.285,71.72l0.773-0.075c0.047,0.259,0.141,0.45,0.283,0.572s0.334,0.183,0.576,0.183
		c0.256,0,0.449-0.054,0.578-0.163c0.131-0.108,0.195-0.235,0.195-0.38c0-0.093-0.027-0.172-0.082-0.237
		c-0.055-0.065-0.15-0.123-0.285-0.17c-0.094-0.032-0.307-0.09-0.637-0.172c-0.426-0.106-0.725-0.235-0.896-0.389
		c-0.242-0.217-0.363-0.48-0.363-0.792c0-0.201,0.057-0.388,0.172-0.563c0.113-0.174,0.277-0.307,0.49-0.398
		c0.215-0.091,0.473-0.137,0.775-0.137c0.492,0,0.865,0.108,1.115,0.325c0.248,0.216,0.381,0.505,0.393,0.867l-0.795,0.035
		c-0.033-0.202-0.107-0.348-0.219-0.437c-0.111-0.088-0.279-0.133-0.504-0.133c-0.23,0-0.41,0.047-0.541,0.143
		c-0.084,0.061-0.127,0.142-0.127,0.244c0,0.093,0.039,0.173,0.119,0.239c0.1,0.084,0.344,0.172,0.73,0.263
		c0.385,0.091,0.672,0.186,0.857,0.283c0.184,0.098,0.33,0.231,0.434,0.4c0.105,0.169,0.158,0.378,0.158,0.627
		c0,0.225-0.063,0.437-0.189,0.633c-0.125,0.197-0.301,0.343-0.531,0.439c-0.229,0.096-0.514,0.144-0.855,0.144
		c-0.498,0-0.879-0.115-1.146-0.345C70.498,72.495,70.338,72.16,70.285,71.72z"/>
	<path fill="#312D2A" d="M77.703,73h-0.865l-0.344-0.894h-1.572L74.598,73h-0.844l1.533-3.935h0.84L77.703,73z M76.24,71.443
		l-0.543-1.46l-0.531,1.46H76.24z"/>
	<path fill="#312D2A" d="M78.602,73v-3.27h-1.168v-0.666h3.127v0.666h-1.164V73H78.602z"/>
	<path fill="#312D2A" d="M81.051,73v-3.935h0.793V73H81.051z"/>
	<path fill="#312D2A" d="M82.441,71.057c0-0.401,0.059-0.737,0.18-1.009c0.088-0.201,0.211-0.38,0.365-0.54s0.324-0.277,0.51-0.354
		c0.244-0.104,0.527-0.156,0.848-0.156c0.58,0,1.043,0.18,1.393,0.54c0.348,0.36,0.521,0.86,0.521,1.5
		c0,0.635-0.174,1.132-0.518,1.491c-0.346,0.359-0.809,0.538-1.387,0.538c-0.584,0-1.049-0.178-1.395-0.535
		S82.441,71.683,82.441,71.057z M83.26,71.03c0,0.445,0.102,0.783,0.309,1.013c0.205,0.23,0.467,0.345,0.783,0.345
		s0.576-0.114,0.779-0.342c0.203-0.229,0.305-0.571,0.305-1.027c0-0.451-0.098-0.788-0.297-1.009
		c-0.197-0.222-0.459-0.333-0.787-0.333s-0.592,0.112-0.791,0.337C83.359,70.238,83.26,70.577,83.26,71.03z"/>
	<path fill="#312D2A" d="M86.887,73v-3.935h0.771l1.611,2.628v-2.628h0.738V73h-0.797l-1.586-2.566V73H86.887z"/>
</g>
<path fill-rule="evenodd" clip-rule="evenodd" d="M50.85,10.995c-1.756,0-3.464,0.203-5.104,0.586v2.162
	c1.648-0.434,3.378-0.666,5.162-0.666c11.163,0,20.213,9.05,20.213,20.213s-9.05,20.213-20.213,20.213
	c-1.784,0-3.514-0.231-5.162-0.666v2.279c1.64,0.383,3.348,0.585,5.104,0.585c12.346,0,22.354-10.008,22.354-22.354
	C73.203,21.004,63.195,10.995,50.85,10.995z"/>
<polygon fill-rule="evenodd" clip-rule="evenodd" points="50.636,14.71 50.79,11.572 52.562,11.659 52.52,14.39 "/>
</svg>
