<?xml version="1.0" encoding="utf-8"?>
<!-- Generator: Adobe Illustrator 16.0.0, SVG Export Plug-In . SVG Version: 6.00 Build 0)  -->
<!DOCTYPE svg PUBLIC "-//W3C//DTD SVG 1.1//EN" "http://www.w3.org/Graphics/SVG/1.1/DTD/svg11.dtd">
<svg version="1.1" id="Layer_1" xmlns="http://www.w3.org/2000/svg" xmlns:xlink="http://www.w3.org/1999/xlink" x="0px" y="0px"
	 width="88.78px" height="70.244px" viewBox="0 0 88.78 70.244" enable-background="new 0 0 88.78 70.244" xml:space="preserve">
<path fill="none" stroke="#FFFFFF" stroke-width="4" stroke-miterlimit="10" d="M40.43,11.089H27.097c0,0-16,3.167-16,23.333
	s15.862,24.423,18.5,24.001c1.923-0.309,4.167-1.668,5.833-5.168s16.905-42.167,18.167-42.167c2.125,0,19.834,47.334,19.834,47.334"
	/>
<line fill="none" stroke="#FFFFFF" stroke-miterlimit="10" x1="52.555" y1="17.451" x2="69.555" y2="59.943"/>
<path fill="#65AD4A" d="M52.223,59.942l3.667-2.5c0,0-2.667-5.999-1.834-9.333c0,0,19.334-10.67,31.667-20.17
	c0,0-23.666,13.002-40.333,18.336L52.223,59.942z"/>
</svg>
